<svg id="my-svg" width="100%" xmlns="http://www.w3.org/2000/svg" xmlns:xlink="http://www.w3.org/1999/xlink" class="statediagram" style="max-width: 915.754px; background-color: white;" viewBox="0 0 915.75390625 819" role="graphics-document document" aria-roledescription="stateDiagram"><style>#my-svg{font-family:"trebuchet ms",verdana,arial,sans-serif;font-size:16px;fill:#333;}#my-svg .error-icon{fill:#552222;}#my-svg .error-text{fill:#552222;stroke:#552222;}#my-svg .edge-thickness-normal{stroke-width:2px;}#my-svg .edge-thickness-thick{stroke-width:3.5px;}#my-svg .edge-pattern-solid{stroke-dasharray:0;}#my-svg .edge-pattern-dashed{stroke-dasharray:3;}#my-svg .edge-pattern-dotted{stroke-dasharray:2;}#my-svg .marker{fill:#333333;stroke:#333333;}#my-svg .marker.cross{stroke:#333333;}#my-svg svg{font-family:"trebuchet ms",verdana,arial,sans-serif;font-size:16px;}#my-svg defs #statediagram-barbEnd{fill:#333333;stroke:#333333;}#my-svg g.stateGroup text{fill:#9370DB;stroke:none;font-size:10px;}#my-svg g.stateGroup text{fill:#333;stroke:none;font-size:10px;}#my-svg g.stateGroup .state-title{font-weight:bolder;fill:#131300;}#my-svg g.stateGroup rect{fill:#ECECFF;stroke:#9370DB;}#my-svg g.stateGroup line{stroke:#333333;stroke-width:1;}#my-svg .transition{stroke:#333333;stroke-width:1;fill:none;}#my-svg .stateGroup .composit{fill:white;border-bottom:1px;}#my-svg .stateGroup .alt-composit{fill:#e0e0e0;border-bottom:1px;}#my-svg .state-note{stroke:#aaaa33;fill:#fff5ad;}#my-svg .state-note text{fill:black;stroke:none;font-size:10px;}#my-svg .stateLabel .box{stroke:none;stroke-width:0;fill:#ECECFF;opacity:0.5;}#my-svg .edgeLabel .label rect{fill:#ECECFF;opacity:0.5;}#my-svg .edgeLabel .label text{fill:#333;}#my-svg .label div .edgeLabel{color:#333;}#my-svg .stateLabel text{fill:#131300;font-size:10px;font-weight:bold;}#my-svg .node circle.state-start{fill:#333333;stroke:#333333;}#my-svg .node .fork-join{fill:#333333;stroke:#333333;}#my-svg .node circle.state-end{fill:#9370DB;stroke:white;stroke-width:1.5;}#my-svg .end-state-inner{fill:white;stroke-width:1.5;}#my-svg .node rect{fill:#ECECFF;stroke:#9370DB;stroke-width:1px;}#my-svg .node polygon{fill:#ECECFF;stroke:#9370DB;stroke-width:1px;}#my-svg #statediagram-barbEnd{fill:#333333;}#my-svg .statediagram-cluster rect{fill:#ECECFF;stroke:#9370DB;stroke-width:1px;}#my-svg .cluster-label,#my-svg .nodeLabel{color:#131300;}#my-svg .statediagram-cluster rect.outer{rx:5px;ry:5px;}#my-svg .statediagram-state .divider{stroke:#9370DB;}#my-svg .statediagram-state .title-state{rx:5px;ry:5px;}#my-svg .statediagram-cluster.statediagram-cluster .inner{fill:white;}#my-svg .statediagram-cluster.statediagram-cluster-alt .inner{fill:#f0f0f0;}#my-svg .statediagram-cluster .inner{rx:0;ry:0;}#my-svg .statediagram-state rect.basic{rx:5px;ry:5px;}#my-svg .statediagram-state rect.divider{stroke-dasharray:10,10;fill:#f0f0f0;}#my-svg .note-edge{stroke-dasharray:5;}#my-svg .statediagram-note rect{fill:#fff5ad;stroke:#aaaa33;stroke-width:1px;rx:0;ry:0;}#my-svg .statediagram-note rect{fill:#fff5ad;stroke:#aaaa33;stroke-width:1px;rx:0;ry:0;}#my-svg .statediagram-note text{fill:black;}#my-svg .statediagram-note .nodeLabel{color:black;}#my-svg .statediagram .edgeLabel{color:red;}#my-svg #dependencyStart,#my-svg #dependencyEnd{fill:#333333;stroke:#333333;stroke-width:1;}#my-svg .statediagramTitleText{text-anchor:middle;font-size:18px;fill:#333;}#my-svg :root{--mermaid-font-family:"trebuchet ms",verdana,arial,sans-serif;}</style><g><defs><marker id="my-svg_statediagram-barbEnd" refX="19" refY="7" markerWidth="20" markerHeight="14" markerUnits="strokeWidth" orient="auto"><path d="M 19,7 L9,13 L14,7 L9,1 Z"/></marker></defs><g class="root"><g class="clusters"/><g class="edgePaths"><path d="M445.137,22L445.137,27.75C445.137,33.5,445.137,45,445.137,56.5C445.137,68,445.137,79.5,445.137,85.25L445.137,91" id="edge0" class="edge-thickness-normal transition" style="fill:none" marker-end="url(#my-svg_statediagram-barbEnd)"/><path d="M401.48,114.234L348.648,121.778C295.815,129.323,190.15,144.411,137.317,160.539C84.484,176.667,84.484,193.833,84.484,211C84.484,228.167,84.484,245.333,84.484,262.5C84.484,279.667,84.484,296.833,84.484,314C84.484,331.167,84.484,348.333,84.484,365.833C84.484,383.333,84.484,401.167,84.484,420.583C84.484,440,84.484,461,84.484,481.667C84.484,502.333,84.484,522.667,84.484,539.833C84.484,557,84.484,571,84.484,585C84.484,599,84.484,613,84.484,627C84.484,641,84.484,655,84.484,666.167C84.484,677.333,84.484,685.667,84.484,689.833L84.484,694" id="edge1" class="edge-thickness-normal transition" style="fill:none" marker-end="url(#my-svg_statediagram-barbEnd)"/><path d="M84.484,728L84.484,733.75C84.484,739.5,84.484,751,147.747,763.542C211.009,776.084,337.534,789.668,400.797,796.461L464.06,803.253" id="edge2" class="edge-thickness-normal transition" style="fill:none" marker-end="url(#my-svg_statediagram-barbEnd)"/><path d="M488.793,120.445L511.626,126.954C534.46,133.463,580.126,146.482,602.96,158.741C625.793,171,625.793,182.5,625.793,188.25L625.793,194" id="edge3" class="edge-thickness-normal transition" style="fill:none" marker-end="url(#my-svg_statediagram-barbEnd)"/><path d="M607.905,228L601.854,233.75C595.804,239.5,583.703,251,577.652,262.5C571.602,274,571.602,285.5,571.602,291.25L571.602,297" id="edge4" class="edge-thickness-normal transition" style="fill:none" marker-end="url(#my-svg_statediagram-barbEnd)"/><path d="M659.676,219.366L688.792,226.555C717.908,233.744,776.139,248.122,805.255,263.894C834.371,279.667,834.371,296.833,834.371,314C834.371,331.167,834.371,348.333,834.371,365.833C834.371,383.333,834.371,401.167,834.371,420.583C834.371,440,834.371,461,834.371,481.667C834.371,502.333,834.371,522.667,834.371,539.833C834.371,557,834.371,571,834.371,585C834.371,599,834.371,613,834.371,627C834.371,641,834.371,655,834.371,666.167C834.371,677.333,834.371,685.667,834.371,689.833L834.371,694" id="edge5" class="edge-thickness-normal transition" style="fill:none" marker-end="url(#my-svg_statediagram-barbEnd)"/><path d="M527.523,327.686L507.227,333.989C486.93,340.291,446.336,352.895,426.039,365.281C405.742,377.667,405.742,389.833,405.742,395.917L405.742,402" id="edge6" class="edge-thickness-normal transition" style="fill:none" marker-end="url(#my-svg_statediagram-barbEnd)"/><path d="M615.68,327.686L635.977,333.989C656.273,340.291,696.867,352.895,717.164,368.114C737.461,383.333,737.461,401.167,737.461,420.583C737.461,440,737.461,461,731.154,478.833C724.847,496.667,712.234,511.333,705.927,518.667L699.62,526" id="edge7" class="edge-thickness-normal transition" style="fill:none" marker-end="url(#my-svg_statediagram-barbEnd)"/><path d="M372.523,429.403L344.533,438.169C316.542,446.936,260.56,464.468,232.569,480.567C204.578,496.667,204.578,511.333,204.578,518.667L204.578,526" id="edge8" class="edge-thickness-normal transition" style="fill:none" marker-end="url(#my-svg_statediagram-barbEnd)"/><path d="M405.742,436L405.742,443.667C405.742,451.333,405.742,466.667,405.742,481.667C405.742,496.667,405.742,511.333,405.742,518.667L405.742,526" id="edge9" class="edge-thickness-normal transition" style="fill:none" marker-end="url(#my-svg_statediagram-barbEnd)"/><path d="M438.961,428.228L471.224,437.19C503.487,446.152,568.013,464.076,606.583,480.371C645.153,496.667,657.766,511.333,664.073,518.667L670.38,526" id="edge10" class="edge-thickness-normal transition" style="fill:none" marker-end="url(#my-svg_statediagram-barbEnd)"/><path d="M204.578,560L204.578,564.167C204.578,568.333,204.578,576.667,213.131,585C221.684,593.333,238.79,601.667,247.343,605.833L255.896,610" id="edge11" class="edge-thickness-normal transition" style="fill:none" marker-end="url(#my-svg_statediagram-barbEnd)"/><path d="M405.742,560L405.742,564.167C405.742,568.333,405.742,576.667,394.338,585C382.935,593.333,360.127,601.667,348.724,605.833L337.32,610" id="edge12" class="edge-thickness-normal transition" style="fill:none" marker-end="url(#my-svg_statediagram-barbEnd)"/><path d="M290.793,644L290.793,648.167C290.793,652.333,290.793,660.667,290.793,669C290.793,677.333,290.793,685.667,290.793,689.833L290.793,694" id="edge13" class="edge-thickness-normal transition" style="fill:none" marker-end="url(#my-svg_statediagram-barbEnd)"/><path d="M290.793,728L290.793,733.75C290.793,739.5,290.793,751,319.694,763.405C348.595,775.81,406.396,789.119,435.297,795.774L464.198,802.429" id="edge14" class="edge-thickness-normal transition" style="fill:none" marker-end="url(#my-svg_statediagram-barbEnd)"/><path d="M834.371,728L834.371,733.75C834.371,739.5,834.371,751,774.972,763.534C715.572,776.069,596.773,789.637,537.374,796.421L477.974,803.206" id="edge15" class="edge-thickness-normal transition" style="fill:none" marker-end="url(#my-svg_statediagram-barbEnd)"/><path d="M685,560L685,564.167C685,568.333,685,576.667,685,587.833C685,599,685,613,685,627C685,641,685,655,685,669C685,683,685,697,685,712.583C685,728.167,685,745.333,650.482,760.611C615.964,775.889,546.928,789.278,512.41,795.973L477.891,802.667" id="edge16" class="edge-thickness-normal transition" style="fill:none" marker-end="url(#my-svg_statediagram-barbEnd)"/></g><g class="edgeLabels"><g class="edgeLabel" transform="translate(445.13671875, 56.5)"><g class="label" transform="translate(-55.03125, -9.5)"><rect rx="0" ry="0" width="110.0625" height="19"/><foreignObject width="110.0625" height="19"><div xmlns="http://www.w3.org/1999/xhtml" style="display: inline-block; white-space: nowrap;"><span class="edgeLabel">POST /api/runs</span></div></foreignObject></g></g><g class="edgeLabel" transform="translate(84.484375, 419)"><g class="label" transform="translate(-55.75, -19)"><rect rx="0" ry="0" width="111.5" height="38"/><foreignObject width="111.5" height="38"><div xmlns="http://www.w3.org/1999/xhtml" style="display: inline-block; white-space: nowrap;"><span class="edgeLabel">circuit_hash hit<br />(force=false)</span></div></foreignObject></g></g><g class="edgeLabel" transform="translate(84.484375, 762.5)"><g class="label" transform="translate(-76.484375, -9.5)"><rect rx="0" ry="0" width="152.96875" height="19"/><foreignObject width="152.96875" height="19"><div xmlns="http://www.w3.org/1999/xhtml" style="display: inline-block; white-space: nowrap;"><span class="edgeLabel">returns cached result</span></div></foreignObject></g></g><g class="edgeLabel" transform="translate(625.79296875, 159.5)"><g class="label" transform="translate(-56.046875, -9.5)"><rect rx="0" ry="0" width="112.09375" height="19"/><foreignObject width="112.09375" height="19"><div xmlns="http://www.w3.org/1999/xhtml" style="display: inline-block; white-space: nowrap;"><span class="edgeLabel">enqueue to SQS</span></div></foreignObject></g></g><g class="edgeLabel" transform="translate(571.6015625, 262.5)"><g class="label" transform="translate(-61.2578125, -9.5)"><rect rx="0" ry="0" width="122.515625" height="19"/><foreignObject width="122.515625" height="19"><div xmlns="http://www.w3.org/1999/xhtml" style="display: inline-block; white-space: nowrap;"><span class="edgeLabel">worker dequeues</span></div></foreignObject></g></g><g class="edgeLabel" transform="translate(834.37109375, 482)"><g class="label" transform="translate(-51.890625, -19)"><rect rx="0" ry="0" width="103.78125" height="38"/><foreignObject width="103.78125" height="38"><div xmlns="http://www.w3.org/1999/xhtml" style="display: inline-block; white-space: nowrap;"><span class="edgeLabel">user cancelled<br />before pickup</span></div></foreignObject></g></g><g class="edgeLabel" transform="translate(405.7421875, 365.5)"><g class="label" transform="translate(-80.0546875, -9.5)"><rect rx="0" ry="0" width="160.109375" height="19"/><foreignObject width="160.109375" height="19"><div xmlns="http://www.w3.org/1999/xhtml" style="display: inline-block; white-space: nowrap;"><span class="edgeLabel">adapter &amp; creds ready</span></div></foreignObject></g></g><g class="edgeLabel" transform="translate(737.4609375, 419)"><g class="label" transform="translate(-65.4375, -9.5)"><rect rx="0" ry="0" width="130.875" height="19"/><foreignObject width="130.875" height="19"><div xmlns="http://www.w3.org/1999/xhtml" style="display: inline-block; white-space: nowrap;"><span class="edgeLabel">worker init failure</span></div></foreignObject></g></g><g class="edgeLabel" transform="translate(204.578125, 482)"><g class="label" transform="translate(-59.2890625, -9.5)"><rect rx="0" ry="0" width="118.578125" height="19"/><foreignObject width="118.578125" height="19"><div xmlns="http://www.w3.org/1999/xhtml" style="display: inline-block; white-space: nowrap;"><span class="edgeLabel">counts produced</span></div></foreignObject></g></g><g class="edgeLabel" transform="translate(405.7421875, 482)"><g class="label" transform="translate(-121.875, -9.5)"><rect rx="0" ry="0" width="243.75" height="19"/><foreignObject width="243.75" height="19"><div xmlns="http://www.w3.org/1999/xhtml" style="display: inline-block; white-space: nowrap;"><span class="edgeLabel">vendor backend returned an error</span></div></foreignObject></g></g><g class="edgeLabel" transform="translate(632.5390625, 482)"><g class="label" transform="translate(-84.921875, -9.5)"><rect rx="0" ry="0" width="169.84375" height="19"/><foreignObject width="169.84375" height="19"><div xmlns="http://www.w3.org/1999/xhtml" style="display: inline-block; white-space: nowrap;"><span class="edgeLabel">worker / SDK exception</span></div></foreignObject></g></g><g class="edgeLabel"><g class="label" transform="translate(0, 0)"><rect rx="0" ry="0" width="0" height="0"/><foreignObject width="0" height="0"><div xmlns="http://www.w3.org/1999/xhtml" style="display: inline-block; white-space: nowrap;"><span class="edgeLabel"></span></div></foreignObject></g></g><g class="edgeLabel"><g class="label" transform="translate(0, 0)"><rect rx="0" ry="0" width="0" height="0"/><foreignObject width="0" height="0"><div xmlns="http://www.w3.org/1999/xhtml" style="display: inline-block; white-space: nowrap;"><span class="edgeLabel"></span></div></foreignObject></g></g><g class="edgeLabel"><g class="label" transform="translate(0, 0)"><rect rx="0" ry="0" width="0" height="0"/><foreignObject width="0" height="0"><div xmlns="http://www.w3.org/1999/xhtml" style="display: inline-block; white-space: nowrap;"><span class="edgeLabel"></span></div></foreignObject></g></g><g class="edgeLabel"><g class="label" transform="translate(0, 0)"><rect rx="0" ry="0" width="0" height="0"/><foreignObject width="0" height="0"><div xmlns="http://www.w3.org/1999/xhtml" style="display: inline-block; white-space: nowrap;"><span class="edgeLabel"></span></div></foreignObject></g></g><g class="edgeLabel"><g class="label" transform="translate(0, 0)"><rect rx="0" ry="0" width="0" height="0"/><foreignObject width="0" height="0"><div xmlns="http://www.w3.org/1999/xhtml" style="display: inline-block; white-space: nowrap;"><span class="edgeLabel"></span></div></foreignObject></g></g><g class="edgeLabel"><g class="label" transform="translate(0, 0)"><rect rx="0" ry="0" width="0" height="0"/><foreignObject width="0" height="0"><div xmlns="http://www.w3.org/1999/xhtml" style="display: inline-block; white-space: nowrap;"><span class="edgeLabel"></span></div></foreignObject></g></g></g><g class="nodes"><g class="node default" id="state-root_start-0" data-node="true" data-id="root_start" transform="translate(445.13671875, 15)"><circle class="state-start" r="7" width="14" height="14"/></g><g class="node  statediagram-state undefined" id="state-submitted-3" data-node="true" data-id="submitted" transform="translate(445.13671875, 108)"><rect class="basic label-container" style="" x="-43.65625" y="-17" width="87.3125" height="34"/><g class="label" style="" transform="translate(-36.15625, -9.5)"><rect/><foreignObject width="72.3125" height="19"><div xmlns="http://www.w3.org/1999/xhtml" style="display: inline-block; white-space: nowrap;"><span class="nodeLabel">submitted</span></div></foreignObject></g></g><g class="node  statediagram-state undefined" id="state-deduped-2" data-node="true" data-id="deduped" transform="translate(84.484375, 711)"><rect class="basic label-container" style="" x="-38.4296875" y="-17" width="76.859375" height="34"/><g class="label" style="" transform="translate(-30.9296875, -9.5)"><rect/><foreignObject width="61.859375" height="19"><div xmlns="http://www.w3.org/1999/xhtml" style="display: inline-block; white-space: nowrap;"><span class="nodeLabel">deduped</span></div></foreignObject></g></g><g class="node default" id="state-root_end-16" data-node="true" data-id="root_end" transform="translate(471.01953125, 804)"><circle class="state-start" r="7" width="14" height="14"/><circle class="state-end" r="5" width="10" height="10"/></g><g class="node  statediagram-state undefined" id="state-queued-5" data-node="true" data-id="queued" transform="translate(625.79296875, 211)"><rect class="basic label-container" style="" x="-33.8828125" y="-17" width="67.765625" height="34"/><g class="label" style="" transform="translate(-26.3828125, -9.5)"><rect/><foreignObject width="52.765625" height="19"><div xmlns="http://www.w3.org/1999/xhtml" style="display: inline-block; white-space: nowrap;"><span class="nodeLabel">queued</span></div></foreignObject></g></g><g class="node  statediagram-state undefined" id="state-picked_up-7" data-node="true" data-id="picked_up" transform="translate(571.6015625, 314)"><rect class="basic label-container" style="" x="-44.078125" y="-17" width="88.15625" height="34"/><g class="label" style="" transform="translate(-36.578125, -9.5)"><rect/><foreignObject width="73.15625" height="19"><div xmlns="http://www.w3.org/1999/xhtml" style="display: inline-block; white-space: nowrap;"><span class="nodeLabel">picked_up</span></div></foreignObject></g></g><g class="node  statediagram-state undefined" id="state-skipped_cancelled-15" data-node="true" data-id="skipped_cancelled" transform="translate(834.37109375, 711)"><rect class="basic label-container" style="" x="-73.3828125" y="-17" width="146.765625" height="34"/><g class="label" style="" transform="translate(-65.8828125, -9.5)"><rect/><foreignObject width="131.765625" height="19"><div xmlns="http://www.w3.org/1999/xhtml" style="display: inline-block; white-space: nowrap;"><span class="nodeLabel">skipped_cancelled</span></div></foreignObject></g></g><g class="node  statediagram-state undefined" id="state-started-10" data-node="true" data-id="started" transform="translate(405.7421875, 419)"><rect class="basic label-container" style="" x="-33.21875" y="-17" width="66.4375" height="34"/><g class="label" style="" transform="translate(-25.71875, -9.5)"><rect/><foreignObject width="51.4375" height="19"><div xmlns="http://www.w3.org/1999/xhtml" style="display: inline-block; white-space: nowrap;"><span class="nodeLabel">started</span></div></foreignObject></g></g><g class="node  statediagram-state undefined" id="state-errored-16" data-node="true" data-id="errored" transform="translate(685, 543)"><rect class="basic label-container" style="" x="-34.3046875" y="-17" width="68.609375" height="34"/><g class="label" style="" transform="translate(-26.8046875, -9.5)"><rect/><foreignObject width="53.609375" height="19"><div xmlns="http://www.w3.org/1999/xhtml" style="display: inline-block; white-space: nowrap;"><span class="nodeLabel">errored</span></div></foreignObject></g></g><g class="node  statediagram-state undefined" id="state-succeeded-11" data-node="true" data-id="succeeded" transform="translate(204.578125, 543)"><rect class="basic label-container" style="" x="-45.0390625" y="-17" width="90.078125" height="34"/><g class="label" style="" transform="translate(-37.5390625, -9.5)"><rect/><foreignObject width="75.078125" height="19"><div xmlns="http://www.w3.org/1999/xhtml" style="display: inline-block; white-space: nowrap;"><span class="nodeLabel">succeeded</span></div></foreignObject></g></g><g class="node  statediagram-state undefined" id="state-failed-12" data-node="true" data-id="failed" transform="translate(405.7421875, 543)"><rect class="basic label-container" style="" x="-28.125" y="-17" width="56.25" height="34"/><g class="label" style="" transform="translate(-20.625, -9.5)"><rect/><foreignObject width="41.25" height="19"><div xmlns="http://www.w3.org/1999/xhtml" style="display: inline-block; white-space: nowrap;"><span class="nodeLabel">failed</span></div></foreignObject></g></g><g class="node  statediagram-state undefined" id="state-verdict_stamped-13" data-node="true" data-id="verdict_stamped" transform="translate(290.79296875, 627)"><rect class="basic label-container" style="" x="-67.4921875" y="-17" width="134.984375" height="34"/><g class="label" style="" transform="translate(-59.9921875, -9.5)"><rect/><foreignObject width="119.984375" height="19"><div xmlns="http://www.w3.org/1999/xhtml" style="display: inline-block; white-space: nowrap;"><span class="nodeLabel">verdict_stamped</span></div></foreignObject></g></g><g class="node  statediagram-state undefined" id="state-artifact_uploaded-14" data-node="true" data-id="artifact_uploaded" transform="translate(290.79296875, 711)"><rect class="basic label-container" style="" x="-71.71875" y="-17" width="143.4375" height="34"/><g class="label" style="" transform="translate(-64.21875, -9.5)"><rect/><foreignObject width="128.4375" height="19"><div xmlns="http://www.w3.org/1999/xhtml" style="display: inline-block; white-space: nowrap;"><span class="nodeLabel">artifact_uploaded</span></div></foreignObject></g></g></g></g></g></svg>