<svg id="my-svg" width="100%" xmlns="http://www.w3.org/2000/svg" xmlns:xlink="http://www.w3.org/1999/xlink" style="max-width: 1027.59px; background-color: white;" viewBox="-8 -7.999996185302734 1027.59375 638.5614624023438" role="graphics-document document" aria-roledescription="flowchart-v2"><style>#my-svg{font-family:"trebuchet ms",verdana,arial,sans-serif;font-size:16px;fill:#333;}#my-svg .error-icon{fill:#552222;}#my-svg .error-text{fill:#552222;stroke:#552222;}#my-svg .edge-thickness-normal{stroke-width:2px;}#my-svg .edge-thickness-thick{stroke-width:3.5px;}#my-svg .edge-pattern-solid{stroke-dasharray:0;}#my-svg .edge-pattern-dashed{stroke-dasharray:3;}#my-svg .edge-pattern-dotted{stroke-dasharray:2;}#my-svg .marker{fill:#333333;stroke:#333333;}#my-svg .marker.cross{stroke:#333333;}#my-svg svg{font-family:"trebuchet ms",verdana,arial,sans-serif;font-size:16px;}#my-svg .label{font-family:"trebuchet ms",verdana,arial,sans-serif;color:#333;}#my-svg .cluster-label text{fill:#333;}#my-svg .cluster-label span,#my-svg p{color:#333;}#my-svg .label text,#my-svg span,#my-svg p{fill:#333;color:#333;}#my-svg .node rect,#my-svg .node circle,#my-svg .node ellipse,#my-svg .node polygon,#my-svg .node path{fill:#ECECFF;stroke:#9370DB;stroke-width:1px;}#my-svg .flowchart-label text{text-anchor:middle;}#my-svg .node .katex path{fill:#000;stroke:#000;stroke-width:1px;}#my-svg .node .label{text-align:center;}#my-svg .node.clickable{cursor:pointer;}#my-svg .arrowheadPath{fill:#333333;}#my-svg .edgePath .path{stroke:#333333;stroke-width:2.0px;}#my-svg .flowchart-link{stroke:#333333;fill:none;}#my-svg .edgeLabel{background-color:#e8e8e8;text-align:center;}#my-svg .edgeLabel rect{opacity:0.5;background-color:#e8e8e8;fill:#e8e8e8;}#my-svg .labelBkg{background-color:rgba(232, 232, 232, 0.5);}#my-svg .cluster rect{fill:#ffffde;stroke:#aaaa33;stroke-width:1px;}#my-svg .cluster text{fill:#333;}#my-svg .cluster span,#my-svg p{color:#333;}#my-svg div.mermaidTooltip{position:absolute;text-align:center;max-width:200px;padding:2px;font-family:"trebuchet ms",verdana,arial,sans-serif;font-size:12px;background:hsl(80, 100%, 96.2745098039%);border:1px solid #aaaa33;border-radius:2px;pointer-events:none;z-index:100;}#my-svg .flowchartTitleText{text-anchor:middle;font-size:18px;fill:#333;}#my-svg :root{--mermaid-font-family:"trebuchet ms",verdana,arial,sans-serif;}#my-svg .q&gt;*{fill:rgb(254, 243, 199)!important;stroke:rgb(217, 119, 6)!important;color:rgb(146, 64, 14)!important;}#my-svg .q span{fill:rgb(254, 243, 199)!important;stroke:rgb(217, 119, 6)!important;color:rgb(146, 64, 14)!important;}#my-svg .q tspan{fill:rgb(146, 64, 14)!important;}#my-svg .dlq&gt;*{fill:rgb(254, 226, 226)!important;stroke:rgb(220, 38, 38)!important;color:rgb(127, 29, 29)!important;}#my-svg .dlq span{fill:rgb(254, 226, 226)!important;stroke:rgb(220, 38, 38)!important;color:rgb(127, 29, 29)!important;}#my-svg .dlq tspan{fill:rgb(127, 29, 29)!important;}</style><g><marker id="my-svg_flowchart-pointEnd" class="marker flowchart" viewBox="0 0 10 10" refX="6" refY="5" markerUnits="userSpaceOnUse" markerWidth="12" markerHeight="12" orient="auto"><path d="M 0 0 L 10 5 L 0 10 z" class="arrowMarkerPath" style="stroke-width: 1; stroke-dasharray: 1, 0;"/></marker><marker id="my-svg_flowchart-pointStart" class="marker flowchart" viewBox="0 0 10 10" refX="4.5" refY="5" markerUnits="userSpaceOnUse" markerWidth="12" markerHeight="12" orient="auto"><path d="M 0 5 L 10 10 L 10 0 z" class="arrowMarkerPath" style="stroke-width: 1; stroke-dasharray: 1, 0;"/></marker><marker id="my-svg_flowchart-circleEnd" class="marker flowchart" viewBox="0 0 10 10" refX="11" refY="5" markerUnits="userSpaceOnUse" markerWidth="11" markerHeight="11" orient="auto"><circle cx="5" cy="5" r="5" class="arrowMarkerPath" style="stroke-width: 1; stroke-dasharray: 1, 0;"/></marker><marker id="my-svg_flowchart-circleStart" class="marker flowchart" viewBox="0 0 10 10" refX="-1" refY="5" markerUnits="userSpaceOnUse" markerWidth="11" markerHeight="11" orient="auto"><circle cx="5" cy="5" r="5" class="arrowMarkerPath" style="stroke-width: 1; stroke-dasharray: 1, 0;"/></marker><marker id="my-svg_flowchart-crossEnd" class="marker cross flowchart" viewBox="0 0 11 11" refX="12" refY="5.2" markerUnits="userSpaceOnUse" markerWidth="11" markerHeight="11" orient="auto"><path d="M 1,1 l 9,9 M 10,1 l -9,9" class="arrowMarkerPath" style="stroke-width: 2; stroke-dasharray: 1, 0;"/></marker><marker id="my-svg_flowchart-crossStart" class="marker cross flowchart" viewBox="0 0 11 11" refX="-1" refY="5.2" markerUnits="userSpaceOnUse" markerWidth="11" markerHeight="11" orient="auto"><path d="M 1,1 l 9,9 M 10,1 l -9,9" class="arrowMarkerPath" style="stroke-width: 2; stroke-dasharray: 1, 0;"/></marker><g class="root"><g class="clusters"><g class="cluster default flowchart-label" id="Fargate"><rect style="" rx="0" ry="0" x="623.546875" y="228.2319564819336" width="202.453125" height="285.36804580688477"/><g class="cluster-label" transform="translate(653.171875, 228.2319564819336)"><foreignObject width="143.203125" height="19"><div xmlns="http://www.w3.org/1999/xhtml" style="display: inline-block; white-space: nowrap;"><span class="nodeLabel">Fargate worker task</span></div></foreignObject></g></g><g class="cluster default flowchart-label" id="API"><rect style="" rx="0" ry="0" x="0" y="41.19523048400879" width="216.75" height="506.39513397216797"/><g class="cluster-label" transform="translate(55.796875, 41.19523048400879)"><foreignObject width="105.15625" height="19"><div xmlns="http://www.w3.org/1999/xhtml" style="display: inline-block; white-space: nowrap;"><span class="nodeLabel">api.qdevops.io</span></div></foreignObject></g></g></g><g class="edgePaths"><path d="M119.527,322.982L135.73,284.476C151.934,245.97,184.342,168.957,213.416,130.451C242.49,91.945,268.229,91.945,295.204,91.945C322.179,91.945,350.389,91.945,364.493,91.945L378.598,91.945" id="L-D-Qp-0" class="edge-thickness-normal edge-pattern-solid flowchart-link LS-D LE-Qp" style="fill:none;" marker-end="url(#my-svg_flowchart-pointEnd)"/><path d="M191.75,327.839L195.917,326.758C200.083,325.676,208.417,323.513,225.453,322.432C242.49,321.35,268.229,321.35,293.707,321.35C319.184,321.35,344.399,321.35,357.007,321.35L369.614,321.35" id="L-D-Qs-0" class="edge-thickness-normal edge-pattern-solid flowchart-link LS-D LE-Qs" style="fill:none;" marker-end="url(#my-svg_flowchart-pointEnd)"/><path d="M126.091,375.982L141.201,398.583C156.311,421.185,186.53,466.388,214.51,488.989C242.49,511.59,268.229,511.59,293.085,511.59C317.942,511.59,341.915,511.59,353.901,511.59L365.888,511.59" id="L-D-Qsb-0" class="edge-thickness-normal edge-pattern-solid flowchart-link LS-D LE-Qsb" style="fill:none;" marker-end="url(#my-svg_flowchart-pointEnd)"/><path d="M470.102,72.54L483.948,66.306C497.794,60.073,525.487,47.605,551.061,41.371C576.635,35.137,600.091,35.137,618.045,35.137C635.999,35.137,648.451,35.137,654.677,35.137L660.903,35.137" id="L-Qp-DLQp-0" class="edge-thickness-normal edge-pattern-dotted flowchart-link LS-Qp LE-DLQp" style="fill:none;stroke-width:2px;stroke-dasharray:3;" marker-end="url(#my-svg_flowchart-pointEnd)"/><path d="M462.309,290.314L477.454,275.209C492.599,260.104,522.89,229.894,549.762,207.634C576.635,185.374,600.091,171.064,616.548,163.908C633.004,156.753,642.461,156.753,647.19,156.753L651.919,156.753" id="L-Qs-DLQs-0" class="edge-thickness-normal edge-pattern-dotted flowchart-link LS-Qs LE-DLQs" style="fill:none;stroke-width:2px;stroke-dasharray:3;" marker-end="url(#my-svg_flowchart-pointEnd)"/><path d="M482.813,491.243L494.54,486.968C506.268,482.692,529.724,474.141,553.18,489.864C576.635,505.587,600.091,545.584,615.927,565.582C631.762,585.581,639.977,585.581,644.085,585.581L648.192,585.581" id="L-Qsb-DLQsb-0" class="edge-thickness-normal edge-pattern-dotted flowchart-link LS-Qsb LE-DLQsb" style="fill:none;stroke-width:2px;stroke-dasharray:3;" marker-end="url(#my-svg_flowchart-pointEnd)"/><path d="M470.102,108.467L483.948,118.753C497.794,129.04,525.487,149.612,551.061,178.24C576.635,206.867,600.091,243.55,617.221,261.891C634.351,280.232,645.154,280.232,650.556,280.232L655.958,280.232" id="L-Qp-Cp-0" class="edge-thickness-normal edge-pattern-solid flowchart-link LS-Qp LE-Cp" style="fill:none;" marker-end="url(#my-svg_flowchart-pointEnd)"/><path d="M479.086,339.051L491.435,343.248C503.784,347.445,528.482,355.838,552.559,360.035C576.635,364.232,600.091,364.232,615.725,364.232C631.358,364.232,639.17,364.232,643.076,364.232L646.981,364.232" id="L-Qs-Cs-0" class="edge-thickness-normal edge-pattern-solid flowchart-link LS-Qs LE-Cs" style="fill:none;" marker-end="url(#my-svg_flowchart-pointEnd)"/><path d="M482.813,511.59L494.54,511.59C506.268,511.59,529.724,511.59,553.18,503.259C576.635,494.927,600.091,478.263,615.102,469.932C630.114,461.6,636.68,461.6,639.964,461.6L643.247,461.6" id="L-Qsb-Csb-0" class="edge-thickness-normal edge-pattern-solid flowchart-link LS-Qsb LE-Csb" style="fill:none;" marker-end="url(#my-svg_flowchart-pointEnd)"/><path d="M788.289,280.232L794.574,280.232C800.859,280.232,813.43,280.232,823.882,280.232C834.333,280.232,842.667,280.232,855.43,286.403C868.193,292.574,885.385,304.917,893.981,311.088L902.578,317.259" id="L-Cp-Adapter-0" class="edge-thickness-normal edge-pattern-solid flowchart-link LS-Cp LE-Adapter" style="fill:none;" marker-end="url(#my-svg_flowchart-pointEnd)"/><path d="M797.266,364.232L802.055,364.232C806.844,364.232,816.422,364.232,825.378,364.232C834.333,364.232,842.667,364.232,850.132,363.614C857.597,362.996,864.194,361.761,867.492,361.143L870.791,360.525" id="L-Cs-Adapter-0" class="edge-thickness-normal edge-pattern-solid flowchart-link LS-Cs LE-Adapter" style="fill:none;" marker-end="url(#my-svg_flowchart-pointEnd)"/><path d="M801,461.6L805.167,461.6C809.333,461.6,817.667,461.6,826,461.6C834.333,461.6,842.667,461.6,858.172,447.579C873.678,433.557,896.356,405.514,907.695,391.493L919.034,377.471" id="L-Csb-Adapter-0" class="edge-thickness-normal edge-pattern-solid flowchart-link LS-Csb LE-Adapter" style="fill:none;" marker-end="url(#my-svg_flowchart-pointEnd)"/></g><g class="edgeLabels"><g class="edgeLabel" transform="translate(293.96875, 91.94523048400879)"><g class="label" transform="translate(-39.5078125, -9.5)"><foreignObject width="79.015625" height="19"><div xmlns="http://www.w3.org/1999/xhtml" style="display: inline-block; white-space: nowrap;"><span class="edgeLabel">stage=prod</span></div></foreignObject></g></g><g class="edgeLabel" transform="translate(293.96875, 321.35000228881836)"><g class="label" transform="translate(-48.484375, -9.5)"><foreignObject width="96.96875" height="19"><div xmlns="http://www.w3.org/1999/xhtml" style="display: inline-block; white-space: nowrap;"><span class="edgeLabel">stage=staging</span></div></foreignObject></g></g><g class="edgeLabel" transform="translate(293.96875, 511.59036445617676)"><g class="label" transform="translate(-52.21875, -9.5)"><foreignObject width="104.4375" height="19"><div xmlns="http://www.w3.org/1999/xhtml" style="display: inline-block; white-space: nowrap;"><span class="edgeLabel">stage=sandbox</span></div></foreignObject></g></g><g class="edgeLabel" transform="translate(553.1796875, 35.13724136352539)"><g class="label" transform="translate(-45.3671875, -9.5)"><foreignObject width="90.734375" height="19"><div xmlns="http://www.w3.org/1999/xhtml" style="display: inline-block; white-space: nowrap;"><span class="edgeLabel">N retries fail</span></div></foreignObject></g></g><g class="edgeLabel" transform="translate(553.1796875, 199.68481063842773)"><g class="label" transform="translate(-45.3671875, -9.5)"><foreignObject width="90.734375" height="19"><div xmlns="http://www.w3.org/1999/xhtml" style="display: inline-block; white-space: nowrap;"><span class="edgeLabel">N retries fail</span></div></foreignObject></g></g><g class="edgeLabel" transform="translate(553.1796875, 465.59036445617676)"><g class="label" transform="translate(-45.3671875, -9.5)"><foreignObject width="90.734375" height="19"><div xmlns="http://www.w3.org/1999/xhtml" style="display: inline-block; white-space: nowrap;"><span class="edgeLabel">N retries fail</span></div></foreignObject></g></g><g class="edgeLabel"><g class="label" transform="translate(0, 0)"><foreignObject width="0" height="0"><div xmlns="http://www.w3.org/1999/xhtml" style="display: inline-block; white-space: nowrap;"><span class="edgeLabel"></span></div></foreignObject></g></g><g class="edgeLabel"><g class="label" transform="translate(0, 0)"><foreignObject width="0" height="0"><div xmlns="http://www.w3.org/1999/xhtml" style="display: inline-block; white-space: nowrap;"><span class="edgeLabel"></span></div></foreignObject></g></g><g class="edgeLabel"><g class="label" transform="translate(0, 0)"><foreignObject width="0" height="0"><div xmlns="http://www.w3.org/1999/xhtml" style="display: inline-block; white-space: nowrap;"><span class="edgeLabel"></span></div></foreignObject></g></g><g class="edgeLabel"><g class="label" transform="translate(0, 0)"><foreignObject width="0" height="0"><div xmlns="http://www.w3.org/1999/xhtml" style="display: inline-block; white-space: nowrap;"><span class="edgeLabel"></span></div></foreignObject></g></g><g class="edgeLabel"><g class="label" transform="translate(0, 0)"><foreignObject width="0" height="0"><div xmlns="http://www.w3.org/1999/xhtml" style="display: inline-block; white-space: nowrap;"><span class="edgeLabel"></span></div></foreignObject></g></g><g class="edgeLabel"><g class="label" transform="translate(0, 0)"><foreignObject width="0" height="0"><div xmlns="http://www.w3.org/1999/xhtml" style="display: inline-block; white-space: nowrap;"><span class="edgeLabel"></span></div></foreignObject></g></g></g><g class="nodes"><g class="node default default flowchart-label" id="flowchart-Cp-13" data-node="true" data-id="Cp" transform="translate(724.7734375, 280.2319564819336)"><rect class="basic label-container" style="" rx="0" ry="0" x="-63.515625" y="-17" width="127.03125" height="34"/><g class="label" style="" transform="translate(-56.015625, -9.5)"><rect/><foreignObject width="112.03125" height="19"><div xmlns="http://www.w3.org/1999/xhtml" style="display: inline-block; white-space: nowrap;"><span class="nodeLabel">consumer: prod</span></div></foreignObject></g></g><g class="node default default flowchart-label" id="flowchart-Cs-14" data-node="true" data-id="Cs" transform="translate(724.7734375, 364.2319564819336)"><rect class="basic label-container" style="" rx="0" ry="0" x="-72.4921875" y="-17" width="144.984375" height="34"/><g class="label" style="" transform="translate(-64.9921875, -9.5)"><rect/><foreignObject width="129.984375" height="19"><div xmlns="http://www.w3.org/1999/xhtml" style="display: inline-block; white-space: nowrap;"><span class="nodeLabel">consumer: staging</span></div></foreignObject></g></g><g class="node default default flowchart-label" id="flowchart-Csb-15" data-node="true" data-id="Csb" transform="translate(724.7734375, 461.60000228881836)"><rect class="basic label-container" style="" rx="0" ry="0" x="-76.2265625" y="-17" width="152.453125" height="34"/><g class="label" style="" transform="translate(-68.7265625, -9.5)"><rect/><foreignObject width="137.453125" height="19"><div xmlns="http://www.w3.org/1999/xhtml" style="display: inline-block; white-space: nowrap;"><span class="nodeLabel">consumer: sandbox</span></div></foreignObject></g></g><g class="node default default flowchart-label" id="flowchart-D-0" data-node="true" data-id="D" transform="translate(108.375, 349.4819564819336)"><rect class="basic label-container" style="" rx="0" ry="0" x="-83.375" y="-26.5" width="166.75" height="53"/><g class="label" style="" transform="translate(-75.875, -19)"><rect/><foreignObject width="151.75" height="38"><div xmlns="http://www.w3.org/1999/xhtml" style="display: inline-block; white-space: nowrap;"><span class="nodeLabel">Dispatcher<br />(reads project.stage)</span></div></foreignObject></g></g><g class="node default q flowchart-label" id="flowchart-Qp-2" data-node="true" data-id="Qp" transform="translate(427, 91.94523048400879)"><path style="" d="M 0,10.2038174151069 a 43.1015625,10.2038174151069 0,0,0 86.203125 0 a 43.1015625,10.2038174151069 0,0,0 -86.203125 0 l 0,44.2038174151069 a 43.1015625,10.2038174151069 0,0,0 86.203125 0 l 0,-44.2038174151069" transform="translate(-43.1015625,-32.305726122660346)"/><g class="label" style="" transform="translate(-35.6015625, -9.5)"><rect/><foreignObject width="71.203125" height="19"><div xmlns="http://www.w3.org/1999/xhtml" style="display: inline-block; white-space: nowrap;"><span class="nodeLabel">runs_prod</span></div></foreignObject></g></g><g class="node default q flowchart-label" id="flowchart-Qs-4" data-node="true" data-id="Qs" transform="translate(427, 321.35000228881836)"><path style="" d="M 0,11.363946273948319 a 52.0859375,11.363946273948319 0,0,0 104.171875 0 a 52.0859375,11.363946273948319 0,0,0 -104.171875 0 l 0,45.363946273948315 a 52.0859375,11.363946273948319 0,0,0 104.171875 0 l 0,-45.363946273948315" transform="translate(-52.0859375,-34.04591941092248)"/><g class="label" style="" transform="translate(-44.5859375, -9.5)"><rect/><foreignObject width="89.171875" height="19"><div xmlns="http://www.w3.org/1999/xhtml" style="display: inline-block; white-space: nowrap;"><span class="nodeLabel">runs_staging</span></div></foreignObject></g></g><g class="node default q flowchart-label" id="flowchart-Qsb-6" data-node="true" data-id="Qsb" transform="translate(427, 511.59036445617676)"><path style="" d="M 0,11.793449550977284 a 55.8125,11.793449550977284 0,0,0 111.625 0 a 55.8125,11.793449550977284 0,0,0 -111.625 0 l 0,45.793449550977286 a 55.8125,11.793449550977284 0,0,0 111.625 0 l 0,-45.793449550977286" transform="translate(-55.8125,-34.69017432646593)"/><g class="label" style="" transform="translate(-48.3125, -9.5)"><rect/><foreignObject width="96.625" height="19"><div xmlns="http://www.w3.org/1999/xhtml" style="display: inline-block; white-space: nowrap;"><span class="nodeLabel">runs_sandbox</span></div></foreignObject></g></g><g class="node default dlq flowchart-label" id="flowchart-DLQp-8" data-node="true" data-id="DLQp" transform="translate(724.7734375, 35.13724136352539)"><path style="" d="M 0,12.09427631154417 a 58.5703125,12.09427631154417 0,0,0 117.140625 0 a 58.5703125,12.09427631154417 0,0,0 -117.140625 0 l 0,46.09427631154417 a 58.5703125,12.09427631154417 0,0,0 117.140625 0 l 0,-46.09427631154417" transform="translate(-58.5703125,-35.14141446731625)"/><g class="label" style="" transform="translate(-51.0703125, -9.5)"><rect/><foreignObject width="102.140625" height="19"><div xmlns="http://www.w3.org/1999/xhtml" style="display: inline-block; white-space: nowrap;"><span class="nodeLabel">runs_prod_dlq</span></div></foreignObject></g></g><g class="node default dlq flowchart-label" id="flowchart-DLQs-10" data-node="true" data-id="DLQs" transform="translate(724.7734375, 156.7532196044922)"><path style="" d="M 0,12.985823271460323 a 67.5546875,12.985823271460323 0,0,0 135.109375 0 a 67.5546875,12.985823271460323 0,0,0 -135.109375 0 l 0,46.98582327146032 a 67.5546875,12.985823271460323 0,0,0 135.109375 0 l 0,-46.98582327146032" transform="translate(-67.5546875,-36.478734907190486)"/><g class="label" style="" transform="translate(-60.0546875, -9.5)"><rect/><foreignObject width="120.109375" height="19"><div xmlns="http://www.w3.org/1999/xhtml" style="display: inline-block; white-space: nowrap;"><span class="nodeLabel">runs_staging_dlq</span></div></foreignObject></g></g><g class="node default dlq flowchart-label" id="flowchart-DLQsb-12" data-node="true" data-id="DLQsb" transform="translate(724.7734375, 585.5807266235352)"><path style="" d="M 0,13.3204858677879 a 71.28125,13.3204858677879 0,0,0 142.5625 0 a 71.28125,13.3204858677879 0,0,0 -142.5625 0 l 0,47.3204858677879 a 71.28125,13.3204858677879 0,0,0 142.5625 0 l 0,-47.3204858677879" transform="translate(-71.28125,-36.98072880168185)"/><g class="label" style="" transform="translate(-63.78125, -9.5)"><rect/><foreignObject width="127.5625" height="19"><div xmlns="http://www.w3.org/1999/xhtml" style="display: inline-block; white-space: nowrap;"><span class="nodeLabel">runs_sandbox_dlq</span></div></foreignObject></g></g><g class="node default default flowchart-label" id="flowchart-Adapter-25" data-node="true" data-id="Adapter" transform="translate(943.796875, 346.85000228881836)"><rect class="basic label-container" style="" rx="0" ry="0" x="-67.796875" y="-26.5" width="135.59375" height="53"/><g class="label" style="" transform="translate(-60.296875, -19)"><rect/><foreignObject width="120.59375" height="38"><div xmlns="http://www.w3.org/1999/xhtml" style="display: inline-block; white-space: nowrap;"><span class="nodeLabel">Backend adapter<br />(see below)</span></div></foreignObject></g></g></g></g></g></svg>