<svg id="my-svg" width="100%" xmlns="http://www.w3.org/2000/svg" xmlns:xlink="http://www.w3.org/1999/xlink" style="max-width: 2389.78px; background-color: white;" viewBox="-8 -8 2389.78125 321.26239013671875" role="graphics-document document" aria-roledescription="flowchart-v2"><style>#my-svg{font-family:"trebuchet ms",verdana,arial,sans-serif;font-size:16px;fill:#333;}#my-svg .error-icon{fill:#552222;}#my-svg .error-text{fill:#552222;stroke:#552222;}#my-svg .edge-thickness-normal{stroke-width:2px;}#my-svg .edge-thickness-thick{stroke-width:3.5px;}#my-svg .edge-pattern-solid{stroke-dasharray:0;}#my-svg .edge-pattern-dashed{stroke-dasharray:3;}#my-svg .edge-pattern-dotted{stroke-dasharray:2;}#my-svg .marker{fill:#333333;stroke:#333333;}#my-svg .marker.cross{stroke:#333333;}#my-svg svg{font-family:"trebuchet ms",verdana,arial,sans-serif;font-size:16px;}#my-svg .label{font-family:"trebuchet ms",verdana,arial,sans-serif;color:#333;}#my-svg .cluster-label text{fill:#333;}#my-svg .cluster-label span,#my-svg p{color:#333;}#my-svg .label text,#my-svg span,#my-svg p{fill:#333;color:#333;}#my-svg .node rect,#my-svg .node circle,#my-svg .node ellipse,#my-svg .node polygon,#my-svg .node path{fill:#ECECFF;stroke:#9370DB;stroke-width:1px;}#my-svg .flowchart-label text{text-anchor:middle;}#my-svg .node .katex path{fill:#000;stroke:#000;stroke-width:1px;}#my-svg .node .label{text-align:center;}#my-svg .node.clickable{cursor:pointer;}#my-svg .arrowheadPath{fill:#333333;}#my-svg .edgePath .path{stroke:#333333;stroke-width:2.0px;}#my-svg .flowchart-link{stroke:#333333;fill:none;}#my-svg .edgeLabel{background-color:#e8e8e8;text-align:center;}#my-svg .edgeLabel rect{opacity:0.5;background-color:#e8e8e8;fill:#e8e8e8;}#my-svg .labelBkg{background-color:rgba(232, 232, 232, 0.5);}#my-svg .cluster rect{fill:#ffffde;stroke:#aaaa33;stroke-width:1px;}#my-svg .cluster text{fill:#333;}#my-svg .cluster span,#my-svg p{color:#333;}#my-svg div.mermaidTooltip{position:absolute;text-align:center;max-width:200px;padding:2px;font-family:"trebuchet ms",verdana,arial,sans-serif;font-size:12px;background:hsl(80, 100%, 96.2745098039%);border:1px solid #aaaa33;border-radius:2px;pointer-events:none;z-index:100;}#my-svg .flowchartTitleText{text-anchor:middle;font-size:18px;fill:#333;}#my-svg :root{--mermaid-font-family:"trebuchet ms",verdana,arial,sans-serif;}#my-svg .vendor&gt;*{fill:rgb(254, 243, 199)!important;stroke:rgb(217, 119, 6)!important;color:rgb(146, 64, 14)!important;}#my-svg .vendor span{fill:rgb(254, 243, 199)!important;stroke:rgb(217, 119, 6)!important;color:rgb(146, 64, 14)!important;}#my-svg .vendor tspan{fill:rgb(146, 64, 14)!important;}#my-svg .ours&gt;*{fill:rgb(240, 253, 244)!important;stroke:rgb(22, 163, 74)!important;color:rgb(20, 83, 45)!important;}#my-svg .ours span{fill:rgb(240, 253, 244)!important;stroke:rgb(22, 163, 74)!important;color:rgb(20, 83, 45)!important;}#my-svg .ours tspan{fill:rgb(20, 83, 45)!important;}</style><g><marker id="my-svg_flowchart-pointEnd" class="marker flowchart" viewBox="0 0 10 10" refX="6" refY="5" markerUnits="userSpaceOnUse" markerWidth="12" markerHeight="12" orient="auto"><path d="M 0 0 L 10 5 L 0 10 z" class="arrowMarkerPath" style="stroke-width: 1; stroke-dasharray: 1, 0;"/></marker><marker id="my-svg_flowchart-pointStart" class="marker flowchart" viewBox="0 0 10 10" refX="4.5" refY="5" markerUnits="userSpaceOnUse" markerWidth="12" markerHeight="12" orient="auto"><path d="M 0 5 L 10 10 L 10 0 z" class="arrowMarkerPath" style="stroke-width: 1; stroke-dasharray: 1, 0;"/></marker><marker id="my-svg_flowchart-circleEnd" class="marker flowchart" viewBox="0 0 10 10" refX="11" refY="5" markerUnits="userSpaceOnUse" markerWidth="11" markerHeight="11" orient="auto"><circle cx="5" cy="5" r="5" class="arrowMarkerPath" style="stroke-width: 1; stroke-dasharray: 1, 0;"/></marker><marker id="my-svg_flowchart-circleStart" class="marker flowchart" viewBox="0 0 10 10" refX="-1" refY="5" markerUnits="userSpaceOnUse" markerWidth="11" markerHeight="11" orient="auto"><circle cx="5" cy="5" r="5" class="arrowMarkerPath" style="stroke-width: 1; stroke-dasharray: 1, 0;"/></marker><marker id="my-svg_flowchart-crossEnd" class="marker cross flowchart" viewBox="0 0 11 11" refX="12" refY="5.2" markerUnits="userSpaceOnUse" markerWidth="11" markerHeight="11" orient="auto"><path d="M 1,1 l 9,9 M 10,1 l -9,9" class="arrowMarkerPath" style="stroke-width: 2; stroke-dasharray: 1, 0;"/></marker><marker id="my-svg_flowchart-crossStart" class="marker cross flowchart" viewBox="0 0 11 11" refX="-1" refY="5.2" markerUnits="userSpaceOnUse" markerWidth="11" markerHeight="11" orient="auto"><path d="M 1,1 l 9,9 M 10,1 l -9,9" class="arrowMarkerPath" style="stroke-width: 2; stroke-dasharray: 1, 0;"/></marker><g class="root"><g class="clusters"><g class="cluster default flowchart-label" id="W"><rect style="" rx="0" ry="0" x="0" y="0" width="576.21875" height="269.5874557495117"/><g class="cluster-label" transform="translate(233.6796875, 0)"><foreignObject width="108.859375" height="19"><div xmlns="http://www.w3.org/1999/xhtml" style="display: inline-block; white-space: nowrap;"><span class="nodeLabel">Worker process</span></div></foreignObject></g></g></g><g class="edgePaths"><path d="M344.953,177.75L349.12,177.75C353.286,177.75,361.62,177.75,369.07,177.75C376.52,177.75,383.086,177.75,386.37,177.75L389.653,177.75" id="L-DQ-RES-0" class="edge-thickness-normal edge-pattern-solid flowchart-link LS-DQ LE-RES" style="fill:none;" marker-end="url(#my-svg_flowchart-pointEnd)"/><path d="M492.926,151.25L506.808,132.708C520.69,114.167,548.455,77.083,574.407,58.542C600.359,40,624.5,40,656.71,40C688.919,40,729.198,40,774.962,40C820.727,40,871.977,40,926.057,40C980.138,40,1037.049,40,1091.311,40C1145.573,40,1197.185,40,1237.014,40C1276.843,40,1304.889,40,1318.911,40L1332.934,40" id="L-RES-AS-0" class="edge-thickness-normal edge-pattern-solid flowchart-link LS-RES LE-AS" style="fill:none;" marker-end="url(#my-svg_flowchart-pointEnd)"/><path d="M516.928,204.25L526.81,210.223C536.692,216.196,556.455,228.142,578.407,234.115C600.359,240.087,624.5,240.087,647.757,240.087C671.015,240.087,693.389,240.087,704.576,240.087L715.763,240.087" id="L-RES-AI-0" class="edge-thickness-normal edge-pattern-solid flowchart-link LS-RES LE-AI" style="fill:none;" marker-end="url(#my-svg_flowchart-pointEnd)"/><path d="M551.219,174.72L555.385,174.558C559.552,174.396,567.885,174.073,584.122,173.912C600.359,173.75,624.5,173.75,656.71,173.75C688.919,173.75,729.198,173.75,774.962,173.75C820.727,173.75,871.977,173.75,926.057,173.75C980.138,173.75,1037.049,173.75,1091.311,173.75C1145.573,173.75,1197.185,173.75,1241.485,180.93C1285.786,188.111,1322.775,202.471,1341.27,209.652L1359.764,216.832" id="L-RES-AB-0" class="edge-thickness-normal edge-pattern-solid flowchart-link LS-RES LE-AB" style="fill:none;" marker-end="url(#my-svg_flowchart-pointEnd)"/><path d="M1478.75,40L1482.917,40C1487.083,40,1495.417,40,1502.867,40C1510.317,40,1516.883,40,1520.167,40L1523.45,40" id="L-AS-QSim-0" class="edge-thickness-normal edge-pattern-solid flowchart-link LS-AS LE-QSim" style="fill:none;" marker-end="url(#my-svg_flowchart-pointEnd)"/><path d="M817.891,240.087L835.447,240.087C853.003,240.087,888.115,240.087,922.349,241.992C956.583,243.897,989.94,247.707,1006.618,249.612L1023.297,251.517" id="L-AI-V-0" class="edge-thickness-normal edge-pattern-solid flowchart-link LS-AI LE-V" style="fill:none;" marker-end="url(#my-svg_flowchart-pointEnd)"/><path d="M1349.102,251.867L1332.384,256.404C1315.667,260.941,1282.232,270.014,1251.484,272.784C1220.737,275.554,1192.678,272.02,1178.648,270.253L1164.618,268.486" id="L-AB-V-0" class="edge-thickness-normal edge-pattern-solid flowchart-link LS-AB LE-V" style="fill:none;" marker-end="url(#my-svg_flowchart-pointEnd)"/><path d="M1028.563,267.057L1011.007,269.062C993.451,271.067,958.339,275.077,924.083,272.846C889.827,270.615,856.427,262.143,839.728,257.907L823.028,253.671" id="L-V-AI-0" class="edge-thickness-normal edge-pattern-dotted flowchart-link LS-V LE-AI" style="fill:none;stroke-width:2px;stroke-dasharray:3;" marker-end="url(#my-svg_flowchart-pointEnd)"/><path d="M1159.359,246.6L1174.266,243.639C1189.172,240.679,1218.984,234.758,1249.726,232.483C1280.467,230.208,1312.137,231.579,1327.972,232.265L1343.807,232.95" id="L-V-AB-0" class="edge-thickness-normal edge-pattern-dotted flowchart-link LS-V LE-AB" style="fill:none;stroke-width:2px;stroke-dasharray:3;" marker-end="url(#my-svg_flowchart-pointEnd)"/><path d="M793.999,223.087L815.537,208.156C837.075,193.225,880.151,163.362,930.144,148.431C980.138,133.5,1037.049,133.5,1091.311,133.5C1145.573,133.5,1197.185,133.5,1249.607,133.5C1302.029,133.5,1355.26,133.5,1397.753,133.5C1440.245,133.5,1471.997,133.5,1493.13,133.5C1514.262,133.5,1524.774,133.5,1530.03,133.5L1535.286,133.5" id="L-AI-IBM-0" class="edge-thickness-normal edge-pattern-solid flowchart-link LS-AI LE-IBM" style="fill:none;" marker-end="url(#my-svg_flowchart-pointEnd)"/><path d="M1467.883,235.75L1473.861,235.75C1479.839,235.75,1491.794,235.75,1505.006,235.75C1518.218,235.75,1532.685,235.75,1539.919,235.75L1547.153,235.75" id="L-AB-BRK-0" class="edge-thickness-normal edge-pattern-solid flowchart-link LS-AB LE-BRK" style="fill:none;" marker-end="url(#my-svg_flowchart-pointEnd)"/><path d="M1667.172,40L1677.853,40C1688.534,40,1709.896,40,1736.853,48.789C1763.81,57.577,1796.363,75.155,1812.639,83.943L1828.915,92.732" id="L-QSim-Norm-0" class="edge-thickness-normal edge-pattern-solid flowchart-link LS-QSim LE-Norm" style="fill:none;" marker-end="url(#my-svg_flowchart-pointEnd)"/><path d="M1655.336,133.5L1667.99,133.5C1680.643,133.5,1705.951,133.5,1728.413,131.942C1750.875,130.385,1770.492,127.269,1780.301,125.711L1790.109,124.154" id="L-IBM-Norm-0" class="edge-thickness-normal edge-pattern-solid flowchart-link LS-IBM LE-Norm" style="fill:none;" marker-end="url(#my-svg_flowchart-pointEnd)"/><path d="M1643.469,235.75L1658.1,235.75C1672.732,235.75,1701.995,235.75,1735.208,218.599C1768.422,201.448,1805.586,167.146,1824.167,149.996L1842.749,132.845" id="L-BRK-Norm-0" class="edge-thickness-normal edge-pattern-solid flowchart-link LS-BRK LE-Norm" style="fill:none;" marker-end="url(#my-svg_flowchart-pointEnd)"/><path d="M1934.781,112.25L1957.478,112.25C1980.174,112.25,2025.568,112.25,2070.078,112.25C2114.588,112.25,2158.214,112.25,2180.027,112.25L2201.841,112.25" id="L-Norm-Out-0" class="edge-thickness-normal edge-pattern-solid flowchart-link LS-Norm LE-Out" style="fill:none;" marker-end="url(#my-svg_flowchart-pointEnd)"/></g><g class="edgeLabels"><g class="edgeLabel"><g class="label" transform="translate(0, 0)"><foreignObject width="0" height="0"><div xmlns="http://www.w3.org/1999/xhtml" style="display: inline-block; white-space: nowrap;"><span class="edgeLabel"></span></div></foreignObject></g></g><g class="edgeLabel" transform="translate(923.2265625, 40)"><g class="label" transform="translate(-67.7109375, -9.5)"><foreignObject width="135.421875" height="19"><div xmlns="http://www.w3.org/1999/xhtml" style="display: inline-block; white-space: nowrap;"><span class="edgeLabel">backend=simulator</span></div></foreignObject></g></g><g class="edgeLabel" transform="translate(648.640625, 240.08745574951172)"><g class="label" transform="translate(-47.421875, -9.5)"><foreignObject width="94.84375" height="19"><div xmlns="http://www.w3.org/1999/xhtml" style="display: inline-block; white-space: nowrap;"><span class="edgeLabel">backend=ibm</span></div></foreignObject></g></g><g class="edgeLabel" transform="translate(923.2265625, 173.75)"><g class="label" transform="translate(-57.3828125, -9.5)"><foreignObject width="114.765625" height="19"><div xmlns="http://www.w3.org/1999/xhtml" style="display: inline-block; white-space: nowrap;"><span class="edgeLabel">backend=braket</span></div></foreignObject></g></g><g class="edgeLabel"><g class="label" transform="translate(0, 0)"><foreignObject width="0" height="0"><div xmlns="http://www.w3.org/1999/xhtml" style="display: inline-block; white-space: nowrap;"><span class="edgeLabel"></span></div></foreignObject></g></g><g class="edgeLabel" transform="translate(923.2265625, 240.08745574951172)"><g class="label" transform="translate(-64.4375, -9.5)"><foreignObject width="128.875" height="19"><div xmlns="http://www.w3.org/1999/xhtml" style="display: inline-block; white-space: nowrap;"><span class="edgeLabel">GET project creds</span></div></foreignObject></g></g><g class="edgeLabel" transform="translate(1248.796875, 279.0874557495117)"><g class="label" transform="translate(-64.4375, -9.5)"><foreignObject width="128.875" height="19"><div xmlns="http://www.w3.org/1999/xhtml" style="display: inline-block; white-space: nowrap;"><span class="edgeLabel">GET project creds</span></div></foreignObject></g></g><g class="edgeLabel" transform="translate(923.2265625, 279.0874557495117)"><g class="label" transform="translate(-80.3359375, -9.5)"><foreignObject width="160.671875" height="19"><div xmlns="http://www.w3.org/1999/xhtml" style="display: inline-block; white-space: nowrap;"><span class="edgeLabel">IBM_QUANTUM_TOKEN</span></div></foreignObject></g></g><g class="edgeLabel" transform="translate(1248.796875, 228.83745574951172)"><g class="label" transform="translate(-54.8125, -9.5)"><foreignObject width="109.625" height="19"><div xmlns="http://www.w3.org/1999/xhtml" style="display: inline-block; white-space: nowrap;"><span class="edgeLabel">AWS access key</span></div></foreignObject></g></g><g class="edgeLabel"><g class="label" transform="translate(0, 0)"><foreignObject width="0" height="0"><div xmlns="http://www.w3.org/1999/xhtml" style="display: inline-block; white-space: nowrap;"><span class="edgeLabel"></span></div></foreignObject></g></g><g class="edgeLabel"><g class="label" transform="translate(0, 0)"><foreignObject width="0" height="0"><div xmlns="http://www.w3.org/1999/xhtml" style="display: inline-block; white-space: nowrap;"><span class="edgeLabel"></span></div></foreignObject></g></g><g class="edgeLabel" transform="translate(1731.2578125, 40)"><g class="label" transform="translate(-39.0859375, -9.5)"><foreignObject width="78.171875" height="19"><div xmlns="http://www.w3.org/1999/xhtml" style="display: inline-block; white-space: nowrap;"><span class="edgeLabel">raw counts</span></div></foreignObject></g></g><g class="edgeLabel" transform="translate(1731.2578125, 133.5)"><g class="label" transform="translate(-39.0859375, -9.5)"><foreignObject width="78.171875" height="19"><div xmlns="http://www.w3.org/1999/xhtml" style="display: inline-block; white-space: nowrap;"><span class="edgeLabel">raw counts</span></div></foreignObject></g></g><g class="edgeLabel" transform="translate(1731.2578125, 235.75)"><g class="label" transform="translate(-39.0859375, -9.5)"><foreignObject width="78.171875" height="19"><div xmlns="http://www.w3.org/1999/xhtml" style="display: inline-block; white-space: nowrap;"><span class="edgeLabel">raw counts</span></div></foreignObject></g></g><g class="edgeLabel" transform="translate(2070.9609375, 112.25)"><g class="label" transform="translate(-111.1796875, -19)"><foreignObject width="222.359375" height="38"><div xmlns="http://www.w3.org/1999/xhtml" style="display: inline-block; white-space: nowrap;"><span class="edgeLabel">{counts, duration_ms,<br />queue_wait_ms, vendor_meta}</span></div></foreignObject></g></g></g><g class="nodes"><g class="node default default flowchart-label" id="flowchart-DQ-0" data-node="true" data-id="DQ" transform="translate(184.9765625, 177.75)"><rect class="basic label-container" style="" rx="0" ry="0" x="-159.9765625" y="-26.5" width="319.953125" height="53"/><g class="label" style="" transform="translate(-152.4765625, -19)"><rect/><foreignObject width="304.953125" height="38"><div xmlns="http://www.w3.org/1999/xhtml" style="display: inline-block; white-space: nowrap;"><span class="nodeLabel">Dequeued message<br />{run_id, circuit, backend, params, env_id}</span></div></foreignObject></g></g><g class="node default default flowchart-label" id="flowchart-RES-1" data-node="true" data-id="RES" transform="translate(473.0859375, 177.75)"><rect class="basic label-container" style="" rx="0" ry="0" x="-78.1328125" y="-26.5" width="156.265625" height="53"/><g class="label" style="" transform="translate(-70.6328125, -19)"><rect/><foreignObject width="141.265625" height="38"><div xmlns="http://www.w3.org/1999/xhtml" style="display: inline-block; white-space: nowrap;"><span class="nodeLabel">Resolver:<br />backend → adapter</span></div></foreignObject></g></g><g class="node default ours flowchart-label" id="flowchart-AS-5" data-node="true" data-id="AS" transform="translate(1408.4921875, 40)"><rect class="basic label-container" style="" rx="0" ry="0" x="-70.2578125" y="-17" width="140.515625" height="34"/><g class="label" style="" transform="translate(-62.7578125, -9.5)"><rect/><foreignObject width="125.515625" height="19"><div xmlns="http://www.w3.org/1999/xhtml" style="display: inline-block; white-space: nowrap;"><span class="nodeLabel">SimulatorAdapter</span></div></foreignObject></g></g><g class="node default ours flowchart-label" id="flowchart-AI-7" data-node="true" data-id="AI" transform="translate(769.4765625, 240.08745574951172)"><rect class="basic label-container" style="" rx="0" ry="0" x="-48.4140625" y="-17" width="96.828125" height="34"/><g class="label" style="" transform="translate(-40.9140625, -9.5)"><rect/><foreignObject width="81.828125" height="19"><div xmlns="http://www.w3.org/1999/xhtml" style="display: inline-block; white-space: nowrap;"><span class="nodeLabel">IBMAdapter</span></div></foreignObject></g></g><g class="node default ours flowchart-label" id="flowchart-AB-9" data-node="true" data-id="AB" transform="translate(1408.4921875, 235.75)"><rect class="basic label-container" style="" rx="0" ry="0" x="-59.390625" y="-17" width="118.78125" height="34"/><g class="label" style="" transform="translate(-51.890625, -9.5)"><rect/><foreignObject width="103.78125" height="19"><div xmlns="http://www.w3.org/1999/xhtml" style="display: inline-block; white-space: nowrap;"><span class="nodeLabel">BraketAdapter</span></div></foreignObject></g></g><g class="node default ours flowchart-label" id="flowchart-QSim-11" data-node="true" data-id="QSim" transform="translate(1597.9609375, 40)"><rect class="basic label-container" style="" rx="0" ry="0" x="-69.2109375" y="-26.5" width="138.421875" height="53"/><g class="label" style="" transform="translate(-61.7109375, -19)"><rect/><foreignObject width="123.421875" height="38"><div xmlns="http://www.w3.org/1999/xhtml" style="display: inline-block; white-space: nowrap;"><span class="nodeLabel">qiskit-aer<br />(local in-process)</span></div></foreignObject></g></g><g class="node default ours flowchart-label" id="flowchart-V-13" data-node="true" data-id="V" transform="translate(1093.9609375, 259.5874557495117)"><path style="" d="M 0,12.783275303891028 a 65.3984375,12.783275303891028 0,0,0 130.796875 0 a 65.3984375,12.783275303891028 0,0,0 -130.796875 0 l 0,65.78327530389103 a 65.3984375,12.783275303891028 0,0,0 130.796875 0 l 0,-65.78327530389103" transform="translate(-65.3984375,-45.67491295583655)"/><g class="label" style="" transform="translate(-57.8984375, -19)"><rect/><foreignObject width="115.796875" height="38"><div xmlns="http://www.w3.org/1999/xhtml" style="display: inline-block; white-space: nowrap;"><span class="nodeLabel">Credential vault<br />(per-project)</span></div></foreignObject></g></g><g class="node default vendor flowchart-label" id="flowchart-IBM-21" data-node="true" data-id="IBM" transform="translate(1597.9609375, 133.5)"><rect class="basic label-container" style="" rx="0" ry="0" x="-57.375" y="-17" width="114.75" height="34"/><g class="label" style="" transform="translate(-49.875, -9.5)"><rect/><foreignObject width="99.75" height="19"><div xmlns="http://www.w3.org/1999/xhtml" style="display: inline-block; white-space: nowrap;"><span class="nodeLabel">IBMQ Runtime</span></div></foreignObject></g></g><g class="node default vendor flowchart-label" id="flowchart-BRK-23" data-node="true" data-id="BRK" transform="translate(1597.9609375, 235.75)"><rect class="basic label-container" style="" rx="0" ry="0" x="-45.5078125" y="-17" width="91.015625" height="34"/><g class="label" style="" transform="translate(-38.0078125, -9.5)"><rect/><foreignObject width="76.015625" height="19"><div xmlns="http://www.w3.org/1999/xhtml" style="display: inline-block; white-space: nowrap;"><span class="nodeLabel">braket-sdk</span></div></foreignObject></g></g><g class="node default ours flowchart-label" id="flowchart-Norm-27" data-node="true" data-id="Norm" transform="translate(1865.0625, 112.25)"><rect class="basic label-container" style="" rx="0" ry="0" x="-69.71875" y="-17" width="139.4375" height="34"/><g class="label" style="" transform="translate(-62.21875, -9.5)"><rect/><foreignObject width="124.4375" height="19"><div xmlns="http://www.w3.org/1999/xhtml" style="display: inline-block; white-space: nowrap;"><span class="nodeLabel">Result normaliser</span></div></foreignObject></g></g><g class="node default default flowchart-label" id="flowchart-Out-29" data-node="true" data-id="Out" transform="translate(2290.4609375, 112.25)"><rect class="basic label-container" style="" rx="0" ry="0" x="-83.3203125" y="-17" width="166.640625" height="34"/><g class="label" style="" transform="translate(-75.8203125, -9.5)"><rect/><foreignObject width="151.640625" height="19"><div xmlns="http://www.w3.org/1999/xhtml" style="display: inline-block; white-space: nowrap;"><span class="nodeLabel">PATCH /api/runs/{id}</span></div></foreignObject></g></g></g></g></g></svg>