<svg id="my-svg" width="100%" xmlns="http://www.w3.org/2000/svg" xmlns:xlink="http://www.w3.org/1999/xlink" style="max-width: 1470.83px; background-color: white;" viewBox="-8 -7.999996185302734 1470.828125 258.9071044921875" role="graphics-document document" aria-roledescription="flowchart-v2"><style>#my-svg{font-family:"trebuchet ms",verdana,arial,sans-serif;font-size:16px;fill:#333;}#my-svg .error-icon{fill:#552222;}#my-svg .error-text{fill:#552222;stroke:#552222;}#my-svg .edge-thickness-normal{stroke-width:2px;}#my-svg .edge-thickness-thick{stroke-width:3.5px;}#my-svg .edge-pattern-solid{stroke-dasharray:0;}#my-svg .edge-pattern-dashed{stroke-dasharray:3;}#my-svg .edge-pattern-dotted{stroke-dasharray:2;}#my-svg .marker{fill:#333333;stroke:#333333;}#my-svg .marker.cross{stroke:#333333;}#my-svg svg{font-family:"trebuchet ms",verdana,arial,sans-serif;font-size:16px;}#my-svg .label{font-family:"trebuchet ms",verdana,arial,sans-serif;color:#333;}#my-svg .cluster-label text{fill:#333;}#my-svg .cluster-label span,#my-svg p{color:#333;}#my-svg .label text,#my-svg span,#my-svg p{fill:#333;color:#333;}#my-svg .node rect,#my-svg .node circle,#my-svg .node ellipse,#my-svg .node polygon,#my-svg .node path{fill:#ECECFF;stroke:#9370DB;stroke-width:1px;}#my-svg .flowchart-label text{text-anchor:middle;}#my-svg .node .katex path{fill:#000;stroke:#000;stroke-width:1px;}#my-svg .node .label{text-align:center;}#my-svg .node.clickable{cursor:pointer;}#my-svg .arrowheadPath{fill:#333333;}#my-svg .edgePath .path{stroke:#333333;stroke-width:2.0px;}#my-svg .flowchart-link{stroke:#333333;fill:none;}#my-svg .edgeLabel{background-color:#e8e8e8;text-align:center;}#my-svg .edgeLabel rect{opacity:0.5;background-color:#e8e8e8;fill:#e8e8e8;}#my-svg .labelBkg{background-color:rgba(232, 232, 232, 0.5);}#my-svg .cluster rect{fill:#ffffde;stroke:#aaaa33;stroke-width:1px;}#my-svg .cluster text{fill:#333;}#my-svg .cluster span,#my-svg p{color:#333;}#my-svg div.mermaidTooltip{position:absolute;text-align:center;max-width:200px;padding:2px;font-family:"trebuchet ms",verdana,arial,sans-serif;font-size:12px;background:hsl(80, 100%, 96.2745098039%);border:1px solid #aaaa33;border-radius:2px;pointer-events:none;z-index:100;}#my-svg .flowchartTitleText{text-anchor:middle;font-size:18px;fill:#333;}#my-svg :root{--mermaid-font-family:"trebuchet ms",verdana,arial,sans-serif;}#my-svg .yours&gt;*{fill:rgb(232, 241, 255)!important;stroke:rgb(59, 130, 246)!important;stroke-width:2px!important;color:rgb(30, 58, 138)!important;}#my-svg .yours span{fill:rgb(232, 241, 255)!important;stroke:rgb(59, 130, 246)!important;stroke-width:2px!important;color:rgb(30, 58, 138)!important;}#my-svg .yours tspan{fill:rgb(30, 58, 138)!important;}#my-svg .ours&gt;*{fill:rgb(240, 253, 244)!important;stroke:rgb(22, 163, 74)!important;stroke-width:2px!important;color:rgb(20, 83, 45)!important;}#my-svg .ours span{fill:rgb(240, 253, 244)!important;stroke:rgb(22, 163, 74)!important;stroke-width:2px!important;color:rgb(20, 83, 45)!important;}#my-svg .ours tspan{fill:rgb(20, 83, 45)!important;}#my-svg .theirs&gt;*{fill:rgb(254, 243, 199)!important;stroke:rgb(217, 119, 6)!important;stroke-width:2px!important;color:rgb(146, 64, 14)!important;}#my-svg .theirs span{fill:rgb(254, 243, 199)!important;stroke:rgb(217, 119, 6)!important;stroke-width:2px!important;color:rgb(146, 64, 14)!important;}#my-svg .theirs tspan{fill:rgb(146, 64, 14)!important;}</style><g><marker id="my-svg_flowchart-pointEnd" class="marker flowchart" viewBox="0 0 10 10" refX="6" refY="5" markerUnits="userSpaceOnUse" markerWidth="12" markerHeight="12" orient="auto"><path d="M 0 0 L 10 5 L 0 10 z" class="arrowMarkerPath" style="stroke-width: 1; stroke-dasharray: 1, 0;"/></marker><marker id="my-svg_flowchart-pointStart" class="marker flowchart" viewBox="0 0 10 10" refX="4.5" refY="5" markerUnits="userSpaceOnUse" markerWidth="12" markerHeight="12" orient="auto"><path d="M 0 5 L 10 10 L 10 0 z" class="arrowMarkerPath" style="stroke-width: 1; stroke-dasharray: 1, 0;"/></marker><marker id="my-svg_flowchart-circleEnd" class="marker flowchart" viewBox="0 0 10 10" refX="11" refY="5" markerUnits="userSpaceOnUse" markerWidth="11" markerHeight="11" orient="auto"><circle cx="5" cy="5" r="5" class="arrowMarkerPath" style="stroke-width: 1; stroke-dasharray: 1, 0;"/></marker><marker id="my-svg_flowchart-circleStart" class="marker flowchart" viewBox="0 0 10 10" refX="-1" refY="5" markerUnits="userSpaceOnUse" markerWidth="11" markerHeight="11" orient="auto"><circle cx="5" cy="5" r="5" class="arrowMarkerPath" style="stroke-width: 1; stroke-dasharray: 1, 0;"/></marker><marker id="my-svg_flowchart-crossEnd" class="marker cross flowchart" viewBox="0 0 11 11" refX="12" refY="5.2" markerUnits="userSpaceOnUse" markerWidth="11" markerHeight="11" orient="auto"><path d="M 1,1 l 9,9 M 10,1 l -9,9" class="arrowMarkerPath" style="stroke-width: 2; stroke-dasharray: 1, 0;"/></marker><marker id="my-svg_flowchart-crossStart" class="marker cross flowchart" viewBox="0 0 11 11" refX="-1" refY="5.2" markerUnits="userSpaceOnUse" markerWidth="11" markerHeight="11" orient="auto"><path d="M 1,1 l 9,9 M 10,1 l -9,9" class="arrowMarkerPath" style="stroke-width: 2; stroke-dasharray: 1, 0;"/></marker><g class="root"><g class="clusters"><g class="cluster default flowchart-label" id="Caller"><rect style="" rx="0" ry="0" x="0" y="67.40710258483887" width="367.84375" height="148.9690341949463"/><g class="cluster-label" transform="translate(149.015625, 67.40710258483887)"><foreignObject width="69.8125" height="19"><div xmlns="http://www.w3.org/1999/xhtml" style="display: inline-block; white-space: nowrap;"><span class="nodeLabel">Your code</span></div></foreignObject></g></g></g><g class="edgePaths"><path d="M197.078,151.376L201.245,151.376C205.411,151.376,213.745,151.376,221.195,151.376C228.645,151.376,235.211,151.376,238.495,151.376L241.778,151.376" id="L-Script-SDK-0" class="edge-thickness-normal edge-pattern-solid flowchart-link LS-Script LE-SDK" style="fill:none;" marker-end="url(#my-svg_flowchart-pointEnd)"/><path d="M338.887,124.876L343.713,121.965C348.539,119.053,358.192,113.23,379.988,110.319C401.784,107.407,435.724,107.407,468.809,111.571C501.894,115.735,534.123,124.064,550.238,128.228L566.353,132.392" id="L-SDK-API-0" class="edge-thickness-normal edge-pattern-solid flowchart-link LS-SDK LE-API" style="fill:none;" marker-end="url(#my-svg_flowchart-pointEnd)"/><path d="M668.661,124.876L684.521,110.303C700.38,95.73,732.1,66.584,756.354,52.011C780.608,37.438,797.396,37.438,805.79,37.438L814.184,37.438" id="L-API-Q-0" class="edge-thickness-normal edge-pattern-solid flowchart-link LS-API LE-Q" style="fill:none;" marker-end="url(#my-svg_flowchart-pointEnd)"/><path d="M969.219,37.438L973.385,37.438C977.552,37.438,985.885,37.438,1001.728,47.845C1017.57,58.252,1040.922,79.066,1052.598,89.473L1064.274,99.881" id="L-Q-W-0" class="edge-thickness-normal edge-pattern-solid flowchart-link LS-Q LE-W" style="fill:none;" marker-end="url(#my-svg_flowchart-pointEnd)"/><path d="M1141.684,103.407L1161.552,91.365C1181.419,79.324,1221.155,55.24,1256.46,44.836C1291.764,34.432,1322.637,37.706,1338.074,39.344L1353.511,40.981" id="L-W-SIM-0" class="edge-thickness-normal edge-pattern-solid flowchart-link LS-W LE-SIM" style="fill:none;" marker-end="url(#my-svg_flowchart-pointEnd)"/><path d="M1176.703,119.033L1190.734,117.095C1204.766,115.158,1232.828,111.282,1260.019,111.474C1287.209,111.665,1313.528,115.924,1326.687,118.053L1339.846,120.182" id="L-W-IBM-0" class="edge-thickness-normal edge-pattern-solid flowchart-link LS-W LE-IBM" style="fill:none;" marker-end="url(#my-svg_flowchart-pointEnd)"/><path d="M1168.166,156.407L1183.62,162.24C1199.074,168.074,1229.983,179.74,1259.742,187.888C1289.501,196.036,1318.111,200.665,1332.416,202.98L1346.721,205.294" id="L-W-BRK-0" class="edge-thickness-normal edge-pattern-solid flowchart-link LS-W LE-BRK" style="fill:none;" marker-end="url(#my-svg_flowchart-pointEnd)"/><path d="M1358.781,52.569L1342.466,55.208C1326.151,57.848,1293.521,63.128,1262.578,71.289C1231.635,79.45,1202.38,90.493,1187.753,96.014L1173.125,101.535" id="L-SIM-W-0" class="edge-thickness-normal edge-pattern-dotted flowchart-link LS-SIM LE-W" style="fill:none;stroke-width:2px;stroke-dasharray:3;" marker-end="url(#my-svg_flowchart-pointEnd)"/><path d="M1345.078,138.786L1331.047,141.056C1317.016,143.326,1288.953,147.867,1261.766,148.32C1234.578,148.773,1208.266,145.14,1195.11,143.323L1181.953,141.506" id="L-IBM-W-0" class="edge-thickness-normal edge-pattern-dotted flowchart-link LS-IBM LE-W" style="fill:none;stroke-width:2px;stroke-dasharray:3;" marker-end="url(#my-svg_flowchart-pointEnd)"/><path d="M1351.953,220.638L1336.776,222.766C1321.599,224.894,1291.245,229.151,1256.611,218.919C1221.977,208.688,1183.064,183.968,1163.608,171.609L1144.151,159.249" id="L-BRK-W-0" class="edge-thickness-normal edge-pattern-dotted flowchart-link LS-BRK LE-W" style="fill:none;stroke-width:2px;stroke-dasharray:3;" marker-end="url(#my-svg_flowchart-pointEnd)"/><path d="M1068.23,156.407L1055.895,167.402C1043.56,178.397,1018.889,200.386,989.909,211.381C960.93,222.376,927.641,222.376,889.241,222.376C850.841,222.376,807.331,222.376,773.389,215.398C739.447,208.421,715.074,194.465,702.888,187.487L690.701,180.51" id="L-W-API-0" class="edge-thickness-normal edge-pattern-solid flowchart-link LS-W LE-API" style="fill:none;" marker-end="url(#my-svg_flowchart-pointEnd)"/><path d="M571.484,153.196L554.514,153.648C537.544,154.1,503.604,155.003,469.664,155.455C435.724,155.907,401.784,155.907,381.529,155.703C361.274,155.499,354.704,155.09,351.419,154.886L348.134,154.682" id="L-API-SDK-0" class="edge-thickness-normal edge-pattern-dotted flowchart-link LS-API LE-SDK" style="fill:none;stroke-width:2px;stroke-dasharray:3;" marker-end="url(#my-svg_flowchart-pointEnd)"/><path d="M708.156,151.376L717.434,151.376C726.711,151.376,745.266,151.376,763.005,151.376C780.744,151.376,797.667,151.376,806.129,151.376L814.591,151.376" id="L-API-DASH-0" class="edge-thickness-normal edge-pattern-solid flowchart-link LS-API LE-DASH" style="fill:none;" marker-end="url(#my-svg_flowchart-pointEnd)"/></g><g class="edgeLabels"><g class="edgeLabel"><g class="label" transform="translate(0, 0)"><foreignObject width="0" height="0"><div xmlns="http://www.w3.org/1999/xhtml" style="display: inline-block; white-space: nowrap;"><span class="edgeLabel"></span></div></foreignObject></g></g><g class="edgeLabel" transform="translate(469.6640625, 107.40710258483887)"><g class="label" transform="translate(-38.2421875, -19)"><foreignObject width="76.484375" height="38"><div xmlns="http://www.w3.org/1999/xhtml" style="display: inline-block; white-space: nowrap;"><span class="edgeLabel">HTTPS<br />Bearer PAT</span></div></foreignObject></g></g><g class="edgeLabel" transform="translate(763.8203125, 37.43806838989258)"><g class="label" transform="translate(-30.6640625, -9.5)"><foreignObject width="61.328125" height="19"><div xmlns="http://www.w3.org/1999/xhtml" style="display: inline-block; white-space: nowrap;"><span class="edgeLabel">enqueue</span></div></foreignObject></g></g><g class="edgeLabel"><g class="label" transform="translate(0, 0)"><foreignObject width="0" height="0"><div xmlns="http://www.w3.org/1999/xhtml" style="display: inline-block; white-space: nowrap;"><span class="edgeLabel"></span></div></foreignObject></g></g><g class="edgeLabel"><g class="label" transform="translate(0, 0)"><foreignObject width="0" height="0"><div xmlns="http://www.w3.org/1999/xhtml" style="display: inline-block; white-space: nowrap;"><span class="edgeLabel"></span></div></foreignObject></g></g><g class="edgeLabel" transform="translate(1260.890625, 107.40710258483887)"><g class="label" transform="translate(-36.625, -9.5)"><foreignObject width="73.25" height="19"><div xmlns="http://www.w3.org/1999/xhtml" style="display: inline-block; white-space: nowrap;"><span class="edgeLabel">user creds</span></div></foreignObject></g></g><g class="edgeLabel" transform="translate(1260.890625, 191.40710258483887)"><g class="label" transform="translate(-36.625, -9.5)"><foreignObject width="73.25" height="19"><div xmlns="http://www.w3.org/1999/xhtml" style="display: inline-block; white-space: nowrap;"><span class="edgeLabel">user creds</span></div></foreignObject></g></g><g class="edgeLabel" transform="translate(1260.890625, 68.40710258483887)"><g class="label" transform="translate(-59.1875, -9.5)"><foreignObject width="118.375" height="19"><div xmlns="http://www.w3.org/1999/xhtml" style="display: inline-block; white-space: nowrap;"><span class="edgeLabel">counts + metrics</span></div></foreignObject></g></g><g class="edgeLabel" transform="translate(1260.890625, 152.40710258483887)"><g class="label" transform="translate(-59.1875, -9.5)"><foreignObject width="118.375" height="19"><div xmlns="http://www.w3.org/1999/xhtml" style="display: inline-block; white-space: nowrap;"><span class="edgeLabel">counts + metrics</span></div></foreignObject></g></g><g class="edgeLabel" transform="translate(1260.890625, 233.40710258483887)"><g class="label" transform="translate(-59.1875, -9.5)"><foreignObject width="118.375" height="19"><div xmlns="http://www.w3.org/1999/xhtml" style="display: inline-block; white-space: nowrap;"><span class="edgeLabel">counts + metrics</span></div></foreignObject></g></g><g class="edgeLabel" transform="translate(894.3515625, 222.37613677978516)"><g class="label" transform="translate(-46.8828125, -9.5)"><foreignObject width="93.765625" height="19"><div xmlns="http://www.w3.org/1999/xhtml" style="display: inline-block; white-space: nowrap;"><span class="edgeLabel">persist result</span></div></foreignObject></g></g><g class="edgeLabel" transform="translate(469.6640625, 155.90710258483887)"><g class="label" transform="translate(-76.8203125, -9.5)"><foreignObject width="153.640625" height="19"><div xmlns="http://www.w3.org/1999/xhtml" style="display: inline-block; white-space: nowrap;"><span class="edgeLabel">/api/runs/{id}/status</span></div></foreignObject></g></g><g class="edgeLabel"><g class="label" transform="translate(0, 0)"><foreignObject width="0" height="0"><div xmlns="http://www.w3.org/1999/xhtml" style="display: inline-block; white-space: nowrap;"><span class="edgeLabel"></span></div></foreignObject></g></g></g><g class="nodes"><g class="node default yours flowchart-label" id="flowchart-Script-0" data-node="true" data-id="Script" transform="translate(111.0390625, 151.37613677978516)"><rect class="basic label-container" style="" rx="0" ry="0" x="-86.0390625" y="-17" width="172.078125" height="34"/><g class="label" style="" transform="translate(-78.5390625, -9.5)"><rect/><foreignObject width="157.078125" height="19"><div xmlns="http://www.w3.org/1999/xhtml" style="display: inline-block; white-space: nowrap;"><span class="nodeLabel">script / notebook / CI</span></div></foreignObject></g></g><g class="node default yours flowchart-label" id="flowchart-SDK-1" data-node="true" data-id="SDK" transform="translate(294.9609375, 151.37613677978516)"><rect class="basic label-container" style="" rx="0" ry="0" x="-47.8828125" y="-26.5" width="95.765625" height="53"/><g class="label" style="" transform="translate(-40.3828125, -19)"><rect/><foreignObject width="80.765625" height="38"><div xmlns="http://www.w3.org/1999/xhtml" style="display: inline-block; white-space: nowrap;"><span class="nodeLabel">qdevops<br />Python SDK</span></div></foreignObject></g></g><g class="node default ours flowchart-label" id="flowchart-API-5" data-node="true" data-id="API" transform="translate(639.8203125, 151.37613677978516)"><rect class="basic label-container" style="" rx="0" ry="0" x="-68.3359375" y="-26.5" width="136.671875" height="53"/><g class="label" style="" transform="translate(-60.8359375, -19)"><rect/><foreignObject width="121.671875" height="38"><div xmlns="http://www.w3.org/1999/xhtml" style="display: inline-block; white-space: nowrap;"><span class="nodeLabel">qdevops.io<br />(public REST API)</span></div></foreignObject></g></g><g class="node default ours flowchart-label" id="flowchart-Q-7" data-node="true" data-id="Q" transform="translate(894.3515625, 37.43806838989258)"><path style="" d="M 0,13.625376784394017 a 74.8671875,13.625376784394017 0,0,0 149.734375 0 a 74.8671875,13.625376784394017 0,0,0 -149.734375 0 l 0,47.62537678439402 a 74.8671875,13.625376784394017 0,0,0 149.734375 0 l 0,-47.62537678439402" transform="translate(-74.8671875,-37.438065176591024)"/><g class="label" style="" transform="translate(-67.3671875, -9.5)"><rect/><foreignObject width="134.734375" height="19"><div xmlns="http://www.w3.org/1999/xhtml" style="display: inline-block; white-space: nowrap;"><span class="nodeLabel">per-env SQS queue</span></div></foreignObject></g></g><g class="node default ours flowchart-label" id="flowchart-W-9" data-node="true" data-id="W" transform="translate(1097.9609375, 129.90710258483887)"><rect class="basic label-container" style="" rx="0" ry="0" x="-78.7421875" y="-26.5" width="157.484375" height="53"/><g class="label" style="" transform="translate(-71.2421875, -19)"><rect/><foreignObject width="142.484375" height="38"><div xmlns="http://www.w3.org/1999/xhtml" style="display: inline-block; white-space: nowrap;"><span class="nodeLabel">worker<br />(Python on Fargate)</span></div></foreignObject></g></g><g class="node default ours flowchart-label" id="flowchart-SIM-11" data-node="true" data-id="SIM" transform="translate(1399.953125, 45.90710258483887)"><rect class="basic label-container" style="" rx="0" ry="0" x="-41.171875" y="-17" width="82.34375" height="34"/><g class="label" style="" transform="translate(-33.671875, -9.5)"><rect/><foreignObject width="67.34375" height="19"><div xmlns="http://www.w3.org/1999/xhtml" style="display: inline-block; white-space: nowrap;"><span class="nodeLabel">simulator</span></div></foreignObject></g></g><g class="node default theirs flowchart-label" id="flowchart-IBM-13" data-node="true" data-id="IBM" transform="translate(1399.953125, 129.90710258483887)"><rect class="basic label-container" style="" rx="0" ry="0" x="-54.875" y="-17" width="109.75" height="34"/><g class="label" style="" transform="translate(-47.375, -9.5)"><rect/><foreignObject width="94.75" height="19"><div xmlns="http://www.w3.org/1999/xhtml" style="display: inline-block; white-space: nowrap;"><span class="nodeLabel">IBM Quantum</span></div></foreignObject></g></g><g class="node default theirs flowchart-label" id="flowchart-BRK-15" data-node="true" data-id="BRK" transform="translate(1399.953125, 213.90710258483887)"><rect class="basic label-container" style="" rx="0" ry="0" x="-48" y="-17" width="96" height="34"/><g class="label" style="" transform="translate(-40.5, -9.5)"><rect/><foreignObject width="81" height="19"><div xmlns="http://www.w3.org/1999/xhtml" style="display: inline-block; white-space: nowrap;"><span class="nodeLabel">AWS Braket</span></div></foreignObject></g></g><g class="node default ours flowchart-label" id="flowchart-DASH-27" data-node="true" data-id="DASH" transform="translate(894.3515625, 151.37613677978516)"><rect class="basic label-container" style="" rx="0" ry="0" x="-74.4609375" y="-26.5" width="148.921875" height="53"/><g class="label" style="" transform="translate(-66.9609375, -19)"><rect/><foreignObject width="133.921875" height="38"><div xmlns="http://www.w3.org/1999/xhtml" style="display: inline-block; white-space: nowrap;"><span class="nodeLabel">qdevops.io/bench<br />(public dashboard)</span></div></foreignObject></g></g></g></g></g></svg>